<svg xmlns="http://www.w3.org/2000/svg" width="82.155" height="57.15" viewBox="0 0 82.155 57.15">
  <g id="mail" transform="translate(1 -79)">
    <g id="Group_50" data-name="Group 50" transform="translate(55.175 92.168)">
      <g id="Group_49" data-name="Group 49">
        <path id="Path_40" data-name="Path 40" d="M339.392,161.15l24.67,15.6V144.9Z" transform="translate(-339.392 -144.896)" fill="none" stroke="#ffa60d" stroke-width="2"/>
      </g>
    </g>
    <g id="Group_52" data-name="Group 52" transform="translate(0 92.168)">
      <g id="Group_51" data-name="Group 51">
        <path id="Path_41" data-name="Path 41" d="M0,144.9v31.855l24.673-15.6Z" transform="translate(0 -144.896)" fill="none" stroke="#ffa60d" stroke-width="2"/>
      </g>
    </g>
    <g id="Group_54" data-name="Group 54" transform="translate(0.15 80)">
      <g id="Group_53" data-name="Group 53">
        <path id="Path_42" data-name="Path 42" d="M76.014,80H5.823A4.951,4.951,0,0,0,.96,84.267l39.959,26.327L80.877,84.267A4.951,4.951,0,0,0,76.014,80Z" transform="translate(-0.96 -80)" fill="none" stroke="#ffa60d" stroke-width="2"/>
      </g>
    </g>
    <g id="Group_56" data-name="Group 56" transform="translate(0.16 111.009)">
      <g id="Group_55" data-name="Group 55">
        <path id="Path_43" data-name="Path 43" d="M49.446,277.925,42.351,282.6a2.517,2.517,0,0,1-2.758,0L32.5,277.92,1.024,297.829a4.943,4.943,0,0,0,4.853,4.232H76.068a4.943,4.943,0,0,0,4.853-4.232Z" transform="translate(-1.024 -277.92)" fill="none" stroke="#ffa60d" stroke-width="2"/>
      </g>
    </g>
  </g>
</svg>
