<svg xmlns="http://www.w3.org/2000/svg" width="67.645" height="72.025" viewBox="0 0 67.645 72.025">
  <g id="Group_47" data-name="Group 47" transform="translate(-5.5 -4.011)">
    <path id="Path_34" data-name="Path 34" d="M14,17l8-6,8,12-9,6" fill="none" stroke="#ffa60d" stroke-miterlimit="10" stroke-width="2"/>
    <path id="Path_35" data-name="Path 35" d="M21,29h0a7,7,0,0,0-2,10L30,57a8,8,0,0,0,10,2l8-5,7,12-8,5c-10,6-23-3-33-17S4,23,14,17" transform="translate(0 2.111)" fill="none" stroke="#ffa60d" stroke-miterlimit="10" stroke-width="2"/>
    <path id="Path_36" data-name="Path 36" d="M39,23A15,15,0,0,1,53,43" transform="translate(0 0.793)" fill="none" stroke="#ffa60d" stroke-miterlimit="10" stroke-width="2"/>
    <path id="Path_37" data-name="Path 37" d="M41,14A25,25,0,0,1,62,45" fill="none" stroke="#ffa60d" stroke-miterlimit="10" stroke-width="2"/>
    <path id="Path_38" data-name="Path 38" d="M43,5A34,34,0,0,1,71,47" fill="none" stroke="#ffa60d" stroke-miterlimit="10" stroke-width="2"/>
  </g>
</svg>
