<svg xmlns="http://www.w3.org/2000/svg" width="232.827" height="233.546" viewBox="0 0 232.827 233.546">
  <g id="Database" transform="translate(-52.08 -14.845)">
    <path id="Path_1" data-name="Path 1" d="M135.051,140.5c-10.416-1.867-20.051-4.047-28.674-6.48a7.44,7.44,0,1,0-4.033,14.323c9.084,2.559,19.2,4.85,30.073,6.807a8.017,8.017,0,0,0,1.324.112,7.44,7.44,0,0,0,1.309-14.761Z" transform="translate(0 -59.571)"/>
    <path id="Path_2" data-name="Path 2" d="M164.141,144.76a7.44,7.44,0,1,0-1.7,14.776,664.314,664.314,0,0,0,75.643,4.144,664.889,664.889,0,0,0,75.449-4.122,7.44,7.44,0,1,0-1.7-14.776A650.676,650.676,0,0,1,238.08,148.8a649.863,649.863,0,0,1-73.939-4.04Z" transform="translate(-69.527 -64.668)"/>
    <path id="Path_3" data-name="Path 3" d="M164.141,263.8a7.44,7.44,0,1,0-1.7,14.776,664.321,664.321,0,0,0,75.643,4.144,664.875,664.875,0,0,0,75.449-4.122,7.44,7.44,0,1,0-1.7-14.776,650.68,650.68,0,0,1-73.753,4.018,649.821,649.821,0,0,1-73.939-4.04Z" transform="translate(-69.528 -123.957)"/>
    <path id="Path_4" data-name="Path 4" d="M311.833,382.862a650.68,650.68,0,0,1-73.753,4.018,649.856,649.856,0,0,1-73.939-4.04,7.44,7.44,0,1,0-1.7,14.776,664.334,664.334,0,0,0,75.643,4.144,664.912,664.912,0,0,0,75.449-4.122,7.44,7.44,0,1,0-1.7-14.776Z" transform="translate(-69.528 -182.89)"/>
    <path id="Path_5" data-name="Path 5" d="M135.051,259.544c-10.416-1.867-20.051-4.047-28.674-6.48a7.44,7.44,0,1,0-4.033,14.323c9.084,2.559,19.2,4.85,30.073,6.807a8.024,8.024,0,0,0,1.324.112,7.44,7.44,0,0,0,1.309-14.761Z" transform="translate(0 -119.212)"/>
    <path id="Path_6" data-name="Path 6" d="M135.051,378.584c-10.416-1.867-20.051-4.047-28.674-6.48a7.44,7.44,0,1,0-4.033,14.323c9.084,2.559,19.2,4.85,30.073,6.807a8.024,8.024,0,0,0,1.324.112,7.44,7.44,0,0,0,1.309-14.761Z" transform="translate(0 -178.853)"/>
    <path id="Path_7" data-name="Path 7" d="M248.284,19.479a609.081,609.081,0,0,0-79.79-4.616A609.064,609.064,0,0,0,88.7,19.479C56.243,24,52.08,29.786,52.08,34.324V221.146c0,17.9,58.565,27.245,116.414,27.245s116.414-9.341,116.414-27.245V34.324C284.907,29.786,280.744,24,248.284,19.479Zm27.311,139.392c0,7.936-41.723,19.461-107.1,19.461s-107.1-11.525-107.1-19.461V111.446c21.043,10.54,73.108,12.4,107.1,12.4s86.058-1.857,107.1-12.4Zm0-58.382c0,6.465-33.229,15.568-107.1,15.568s-107.1-9.1-107.1-15.568V49.172c21.043,10.54,73.108,12.4,107.1,12.4s86.058-1.857,107.1-12.4ZM61.393,34.62c3.451-4.13,38.747-11.972,107.1-11.972s103.65,7.843,107.1,11.972v3.6c0,6.465-33.229,15.568-107.1,15.568s-107.1-9.1-107.1-15.568Zm107.1,205.987c-65.378,0-107.1-11.525-107.1-19.461V170.252c18.761,10.45,63.124,15.864,107.1,15.864s88.339-5.414,107.1-15.864v50.893C275.594,229.082,233.872,240.606,168.494,240.606Z" transform="translate(0 0)"/>
  </g>
</svg>
