<svg xmlns="http://www.w3.org/2000/svg" width="50" height="50" viewBox="0 0 50 50">
  <defs>
    <style>
      .cls-1 {
        fill: #fff;
      }
    </style>
  </defs>
  <path id="instagram-brands" class="cls-1" d="M24.931,44.006A12.819,12.819,0,1,0,37.747,56.825,12.8,12.8,0,0,0,24.931,44.006Zm0,21.154a8.334,8.334,0,1,1,8.332-8.334,8.348,8.348,0,0,1-8.332,8.334Zm16.33-21.678a2.989,2.989,0,1,1-2.989-2.99A2.983,2.983,0,0,1,41.261,43.481Zm8.489,3.035c-.19-4.005-1.1-7.553-4.038-10.476S39.242,32.2,35.237,32c-4.127-.234-16.5-.234-20.625,0-3.993.19-7.54,1.1-10.474,4.028S.3,42.5.1,46.5c-.234,4.128-.234,16.5,0,20.629.19,4.005,1.1,7.553,4.038,10.476s6.47,3.838,10.474,4.039c4.127.234,16.5.234,20.625,0,4-.19,7.552-1.1,10.474-4.039s3.837-6.471,4.038-10.476c.234-4.128.234-16.49,0-20.618ZM44.417,71.563a8.437,8.437,0,0,1-4.752,4.753c-3.291,1.305-11.1,1-14.735,1s-11.456.29-14.735-1a8.437,8.437,0,0,1-4.752-4.753c-1.305-3.291-1-11.1-1-14.738s-.29-11.458,1-14.738A8.437,8.437,0,0,1,10.2,37.334c3.291-1.305,11.1-1,14.735-1s11.456-.29,14.735,1a8.437,8.437,0,0,1,4.752,4.753c1.305,3.291,1,11.1,1,14.738S45.723,68.283,44.417,71.563Z" transform="translate(0.075 -31.825)"/>
</svg>
