<svg xmlns="http://www.w3.org/2000/svg" width="50" height="50" viewBox="0 0 50 50">
  <defs>
    <style>
      .cls-1 {
        fill: #fff;
      }
    </style>
  </defs>
  <path id="linkedin-in-brands" class="cls-1" d="M11.192,50.01H.826V16.628H11.192ZM6,12.074a6.032,6.032,0,1,1,6-6.06A6.054,6.054,0,0,1,6,12.074ZM49.989,50.01H39.645V33.76c0-3.873-.078-8.839-5.39-8.839-5.39,0-6.215,4.208-6.215,8.56V50.01H17.685V16.628h9.942v4.554h.145A10.892,10.892,0,0,1,37.58,15.79C48.071,15.79,50,22.7,50,31.673V50.01Z" transform="translate(0 -0.01)"/>
</svg>
