<svg xmlns="http://www.w3.org/2000/svg" width="50" height="50" viewBox="0 0 50 50">
  <defs>
    <style>
      .cls-1 {
        fill: #fff;
      }
    </style>
  </defs>
  <path id="skype-brands" class="cls-1" d="M47.41,61.9a24.3,24.3,0,0,0,.525-4.889A22.909,22.909,0,0,0,25.017,34.088a23.6,23.6,0,0,0-4.889.525A12.486,12.486,0,0,0,2.6,52.116a24.3,24.3,0,0,0-.525,4.889A22.909,22.909,0,0,0,24.994,79.924a23.6,23.6,0,0,0,4.889-.525A12.487,12.487,0,0,0,50,69.5a12.314,12.314,0,0,0-2.59-7.6ZM25.686,72.109c-7.323,0-13.452-3.26-13.452-7.256a3.137,3.137,0,0,1,3.293-3.416c3.483,0,3.807,5.012,9.835,5.012,2.869,0,4.722-1.273,4.722-2.936,0-2.088-1.786-2.411-4.689-3.126-6.977-1.719-13.15-2.456-13.15-9.734,0-6.609,6.542-9.053,12.179-9.053,6.151,0,12.369,2.445,12.369,6.184a3.363,3.363,0,0,1-3.382,3.55c-3.159,0-3.26-3.74-8.372-3.74-2.869,0-4.689.781-4.689,2.512,0,2.21,2.322,2.434,7.714,3.684,4.622,1.038,10.125,2.992,10.125,8.663,0,6.6-6.374,9.656-12.5,9.656Z" transform="translate(0 -32)"/>
</svg>
