<svg xmlns="http://www.w3.org/2000/svg" width="50" height="50" viewBox="0 0 50 50">
  <defs>
    <style>
      .cls-1 {
        fill: #fff;
      }
    </style>
  </defs>
  <path id="telegram-brands" class="cls-1" d="M25,8A25,25,0,1,0,50,33,25,25,0,0,0,25,8ZM37.278,25.127l-4.1,19.335c-.3,1.371-1.119,1.7-2.258,1.058l-6.25-4.607-3.014,2.9a1.578,1.578,0,0,1-1.26.615l.444-6.361L32.419,27.607c.5-.444-.111-.7-.776-.252L17.329,36.367l-6.169-1.925c-1.341-.423-1.371-1.341.282-1.986l24.1-9.294C36.663,22.758,37.641,23.433,37.278,25.127Z" transform="translate(0 -8)"/>
</svg>
